<svg xmlns="http://www.w3.org/2000/svg" width="20" height="20" viewBox="0 0 20 20">
  <g id="search_icon" transform="translate(-1133 -287.488)">
    <path id="Caminho_2" data-name="Caminho 2" d="M2.5,8.75A6.189,6.189,0,0,1,8.75,2.5,6.189,6.189,0,0,1,15,8.75,6.189,6.189,0,0,1,8.75,15,6.189,6.189,0,0,1,2.5,8.75ZM17.875,19.625a1.237,1.237,0,0,0,1.75-1.75L15.75,14A8.558,8.558,0,0,0,17.5,8.75,8.7,8.7,0,0,0,8.75,0,8.7,8.7,0,0,0,0,8.75,8.7,8.7,0,0,0,8.75,17.5,8.558,8.558,0,0,0,14,15.75Z" transform="translate(1133 287.488)" fill="#454f63"/>
  </g>
</svg>
