<svg xmlns="http://www.w3.org/2000/svg" width="50.077" height="50.603" viewBox="0 0 196.077 183.603">
  <g id="sweet_design_logo" transform="translate(-96.489 -242.199)">
    <g id="Elipse_1" data-name="Elipse 1" transform="matrix(0.999, -0.035, 0.035, 0.999, 141.903, 277.136)" fill="none" stroke="#fff" stroke-width="5">
      <circle cx="30" cy="30" r="30" stroke="none"/>
      <circle cx="30" cy="30" r="27.5" fill="none"/>
    </g>
    <g id="Elipse_2" data-name="Elipse 2" transform="matrix(0.999, -0.035, 0.035, 0.999, 155.903, 290.136)" fill="none" stroke="#fff" stroke-width="5">
      <circle cx="16.5" cy="16.5" r="16.5" stroke="none"/>
      <circle cx="16.5" cy="16.5" r="14" fill="none"/>
    </g>
    <line id="Linha_1" data-name="Linha 1" x2="54" transform="translate(187.5 306.5)" fill="none" stroke="#fff" stroke-linecap="round" stroke-width="5"/>
    <path id="Caminho_1" data-name="Caminho 1" d="M157.155,257.051a31.513,31.513,0,0,0-6.244-6.576c-3.239-2.354-7.611-4.618-12.1-4.9-.056-.007-6.851-.613-10.718,0a36.564,36.564,0,0,0-13.326,4.089c-5.057,3.312-5.9,4.046-8.355,6.955a31.18,31.18,0,0,0-5.167,9.714c-3.185,9.1-2.082,19.291-1.983,19.911.653,4.11.684,8.331,2.546,13.085,4.234,10.809,12.58,21.518,21.737,31.155,20.3,21.369,50.347,34.457,50.347,34.457" transform="translate(0 -0.497)" fill="none" stroke="#fff" stroke-linecap="round" stroke-width="5"/>
    <ellipse id="Elipse_4" data-name="Elipse 4" cx="8" cy="10" rx="8" ry="10" transform="translate(146.956 258.995) rotate(-60)" fill="#fff"/>
    <path id="Caminho_2" data-name="Caminho 2" d="M115.736,257.051a31.513,31.513,0,0,1,6.244-6.576c3.239-2.354,7.611-4.618,12.1-4.9.056-.007,6.851-.613,10.718,0a36.564,36.564,0,0,1,13.326,4.089c5.057,3.312,5.9,4.046,8.355,6.955a31.18,31.18,0,0,1,5.167,9.714c3.185,9.1,2.082,19.291,1.983,19.911-.653,4.11-.684,8.331-2.546,13.085-4.234,10.809-12.58,21.518-21.737,31.155C129.042,351.858,99,364.946,99,364.946" transform="translate(75 -0.497)" fill="none" stroke="#fff" stroke-linecap="round" stroke-width="5"/>
    <ellipse id="Elipse_5" data-name="Elipse 5" cx="8" cy="9.882" rx="8" ry="9.882" transform="translate(183.818 268.878) rotate(-120)" fill="#fff"/>
    <path id="Caminho_3" data-name="Caminho 3" d="M172.969,364.208c-.488,9.446.439,19.4,10.813,33.652a61.829,61.829,0,0,0,13,13.576,52.5,52.5,0,0,0,18.15,9.575c8.02,2.544,10.147,2,19.436,2.287,8.717-.715,9.746-.149,19.007-3.716a51.591,51.591,0,0,0,16.149-9.861c4.4-3.685,8.088-7.891,13.1-15.071a41.89,41.89,0,0,0,5.936-14.4A70.227,70.227,0,0,0,290,367.938a71.846,71.846,0,0,0-.44-13.192,40.515,40.515,0,0,0-2.309-9.344c-.746-1.882-1.846-4.693-3.188-7.7a48.358,48.358,0,0,0-7.7-11.433,50.324,50.324,0,0,0-9.564-8.794c-10.808-7.91-25.525-10.511-25.525-10.511" fill="none" stroke="#fff" stroke-linecap="round" stroke-width="5"/>
  </g>
</svg>
